<?xml version="1.0" encoding="UTF-8"?>
<!DOCTYPE svg  PUBLIC '-//W3C//DTD SVG 1.1//EN'  'http://www.w3.org/Graphics/SVG/1.1/DTD/svg11.dtd'>
<svg clip-rule="evenodd" stroke-linejoin="round" stroke-miterlimit="1.4142" version="1.1" viewBox="0 0 48 11" xml:space="preserve" xmlns="http://www.w3.org/2000/svg"><path d="m3.184 2.644c-0.096 0.797-0.348 1.684-0.756 2.662-0.479 1.153-0.944 1.732-1.393 1.737-0.271 3e-3 -0.601-0.142-0.99-0.435-0.03-0.025-0.045-0.056-0.045-0.094 0-0.096 0.044-0.144 0.131-0.144 0.022 0 0.044 5e-3 0.066 0.016 0.236 0.121 0.437 0.182 0.604 0.185 0.364 0.011 0.766-0.53 1.204-1.623 0.419-1.054 0.643-1.999 0.673-2.834 9e-3 -0.271-0.126-0.407-0.402-0.407-0.044 0-0.092 4e-3 -0.144 0.012-0.214 0.031-0.456 0.2-0.727 0.51-0.301 0.345-0.514 0.738-0.637 1.179-0.016 0.057-0.024 0.112-0.024 0.164 0 0.101 0.034 0.195 0.102 0.28 0.063 0.063 0.126 0.125 0.189 0.188 0.03 0.031 0.045 0.058 0.045 0.083 0 0.052-0.041 0.078-0.123 0.078-0.033 0-0.06-6e-3 -0.082-0.017-0.236-0.139-0.397-0.253-0.485-0.341-0.104-0.107-0.156-0.228-0.156-0.365 0-0.129 0.049-0.306 0.148-0.53 0.142-0.332 0.355-0.656 0.637-0.974 0.268-0.304 0.509-0.501 0.723-0.591 0.098-0.044 0.301-0.02 0.608 0.074 0.019-0.025 0.048-0.037 0.086-0.037 0.107 0 0.316 0.102 0.629 0.308 0.139 0.09 0.179 0.395 0.119 0.916z" fill="#f1332f"/><path d="m8.22 5.54c-0.178 0.266-0.443 0.734-0.797 1.405-0.033 0.06-0.053 0.092-0.061 0.094-0.025 0.014-0.082 7e-3 -0.173-0.02-0.189-0.058-0.283-0.112-0.283-0.164 0-0.031 0.012-0.074 0.037-0.132 0.205-0.479 0.381-0.991 0.528-1.534 0.146-0.544 0.217-0.961 0.211-1.251 0-0.096-0.034-0.144-0.103-0.144-0.046 0-0.101 0.026-0.164 0.078-0.233 0.189-0.534 0.556-0.904 1.101-0.443 0.657-0.757 1.272-0.94 1.845-0.02 0.065-0.036 0.102-0.05 0.11-0.016 9e-3 -0.056 2e-3 -0.119-0.02-0.093-0.033-0.182-0.08-0.267-0.14-0.041-0.03-0.062-0.061-0.062-0.094 0-6e-3 0.021-0.059 0.062-0.16 0.359-0.899 0.538-1.768 0.538-2.609 0-0.085-0.024-0.127-0.074-0.127-0.035 0-0.08 0.023-0.135 0.069-0.293 0.247-0.619 0.671-0.978 1.274-0.345 0.575-0.603 1.115-0.772 1.618-0.044 0.129-0.089 0.194-0.136 0.194-0.055 0-0.167-0.062-0.337-0.185-0.044-0.025-0.065-0.051-0.065-0.078 0-0.03 0.03-0.077 0.09-0.14 0.112-0.238 0.24-0.649 0.382-1.232 0.162-0.666 0.231-1.149 0.209-1.451l-0.431 0.419c-0.035 0.036-0.067 0.054-0.094 0.054-0.041 0-0.062-0.028-0.062-0.082 0-0.044 0.015-0.082 0.045-0.115 0.154-0.159 0.306-0.347 0.456-0.563 0.055-0.077 0.103-0.115 0.144-0.115 0.03 0 0.089 0.044 0.177 0.131 0.068 0.025 0.137 0.05 0.205 0.074 0.058 0.028 0.086 0.078 0.086 0.152 0 0.022-2e-3 0.045-8e-3 0.07-0.068 0.529-0.174 1.022-0.316 1.479 0.485-0.871 0.935-1.49 1.351-1.857 0.058-0.052 0.114-0.078 0.169-0.078 0.057 0 0.145 0.037 0.263 0.111 0.112 0.049 0.186 0.093 0.222 0.131 0.041 0.05 0.061 0.126 0.061 0.23 0 0.559-0.064 1.056-0.193 1.492 0.534-0.847 1.02-1.475 1.458-1.886 0.058-0.055 0.118-0.082 0.181-0.082 0.082 0 0.184 0.055 0.304 0.164 0.214 0.033 0.315 0.163 0.304 0.391-0.033 0.66-0.175 1.298-0.427 1.914 0.137-0.162 0.244-0.301 0.32-0.419 0.036-0.058 0.077-0.086 0.124-0.086 0.041 0 0.061 0.022 0.061 0.065 0 0.028-0.012 0.061-0.037 0.099z" fill="#f1332f"/><path d="m11.798 4.32c-0.032 0.463-0.154 0.96-0.365 1.491-0.197 0.496-0.392 0.834-0.584 1.015-0.109 0.101-0.22 0.152-0.332 0.152-0.126 0-0.336-0.102-0.629-0.304-0.057-0.039-0.086-0.078-0.086-0.119 0-0.052 0.037-0.078 0.111-0.078 0.03 0 0.074 9e-3 0.131 0.028 0.058 0.02 0.104 0.029 0.14 0.029 0.2 0 0.379-0.127 0.538-0.382 0.134-0.219 0.262-0.513 0.382-0.883 0.145-0.46 0.208-0.856 0.189-1.187-8e-3 -0.159-0.062-0.239-0.16-0.239-0.088 0-0.195 0.061-0.321 0.181-0.887 0.849-1.511 1.864-1.873 3.044-0.205 0.671-0.342 1.293-0.411 1.865-2e-3 0.019-0.039 0.495-0.111 1.426-0.011 0.134-0.043 0.201-0.098 0.201-0.058 0-0.16-0.067-0.308-0.201-0.107-0.099-0.148-0.219-0.123-0.362 0.12-1.364 0.45-2.882 0.99-4.556 0.424-1.309 0.761-2.158 1.01-2.547 0.148-0.227 0.279-0.338 0.395-0.332 0.115 2e-3 0.334 0.105 0.657 0.308 0.044 0.027 0.066 0.056 0.066 0.086 0 0.041-0.033 0.062-0.099 0.062-0.016 0-0.044-4e-3 -0.082-0.011-0.039-7e-3 -0.067-0.01-0.086-0.01-0.173 0-0.352 0.147-0.539 0.44-0.109 0.167-0.248 0.447-0.415 0.842-0.167 0.394-0.287 0.719-0.361 0.973 0.403-0.657 0.871-1.221 1.405-1.692 0.082-0.071 0.156-0.107 0.222-0.107 0.03 0 0.105 0.041 0.226 0.123 0.372 0.132 0.546 0.38 0.521 0.744z" fill="#f1332f"/><path d="m14.711 3.761c0 0.359-0.048 0.701-0.144 1.027-0.03 0.099-0.071 0.148-0.123 0.148-0.038 0-0.123-0.055-0.255-0.164-0.065-0.055-0.082-0.133-0.049-0.234 0.077-0.25 0.115-0.45 0.115-0.6 0-0.052-0.011-0.078-0.033-0.078-0.033 0-0.086 0.049-0.16 0.148-0.57 0.742-0.996 1.574-1.278 2.497-0.09 0.293-0.167 0.44-0.23 0.44-0.024 0-0.133-0.048-0.324-0.144-0.093-0.046-0.125-0.137-0.095-0.271 0.217-0.948 0.449-1.747 0.699-2.399-0.203 0.213-0.332 0.36-0.387 0.439-0.021 0.033-0.052 0.05-0.09 0.05-0.046 0-0.07-0.021-0.07-0.062 0-0.025 0.011-0.052 0.033-0.082 0.134-0.162 0.314-0.408 0.538-0.74 0.069-0.12 0.137-0.18 0.206-0.18 0.049 0 0.149 0.038 0.3 0.115 0.084 0.044 0.098 0.102 0.041 0.176-0.061 0.08-0.174 0.361-0.341 0.843-0.159 0.468-0.269 0.835-0.329 1.101 0.372-0.83 0.796-1.563 1.269-2.198 0.091-0.121 0.163-0.181 0.218-0.181 0.049 0 0.117 0.033 0.201 0.099 0.115 0.013 0.188 0.031 0.218 0.053 0.047 0.033 0.07 0.099 0.07 0.197z" fill="#f1332f"/><path d="m17.394 4.25c-6e-3 0.244-0.065 0.567-0.177 0.97-0.178 0.635-0.43 1.128-0.756 1.478-0.172 0.187-0.364 0.28-0.575 0.28-0.082 0-0.188-0.018-0.316-0.054-0.258-0.016-0.467-0.097-0.629-0.242-0.175-0.159-0.257-0.363-0.246-0.612 0.011-0.29 0.11-0.696 0.299-1.216 0.209-0.567 0.425-0.975 0.65-1.224 0.106-0.121 0.194-0.181 0.262-0.181 0.094 0 0.244 0.096 0.452 0.287 0.058-0.027 0.176-0.078 0.354-0.152 0.09-0.03 0.158-0.045 0.205-0.045 0.107 0 0.226 0.1 0.357 0.3 0.085 0.123 0.125 0.26 0.12 0.411zm-0.473 0.119c0.019-0.183 0.029-0.3 0.029-0.349 0-0.115-0.036-0.173-0.107-0.173-0.027 0-0.063 6e-3 -0.107 0.017l-0.636 0.259c-0.074 0.03-0.117 0.045-0.128 0.045-0.022 0-0.044-0.026-0.066-0.078-0.158 0.194-0.306 0.475-0.443 0.842-0.107 0.288-0.181 0.545-0.222 0.772-0.03 0.154-0.045 0.293-0.045 0.419 0 0.422 0.13 0.627 0.39 0.616 0.104-2e-3 0.216-0.043 0.337-0.123 0.23-0.156 0.445-0.468 0.645-0.936 0.192-0.441 0.309-0.878 0.353-1.311z" fill="#f1332f"/><path d="m20.499 3.88c-0.068 0.156-0.146 0.341-0.234 0.555 0.019 0.055 0.081 0.148 0.185 0.279 0.019 0.028 0.015 0.055-0.012 0.082-0.028 0.028-0.065 0.041-0.111 0.041-0.066 0-0.123-0.03-0.173-0.09-0.181 0.408-0.386 0.823-0.616 1.245-0.241 0.449-0.414 0.727-0.518 0.834-0.09 0.09-0.18 0.135-0.271 0.135-0.085 0-0.16-0.034-0.226-0.102-0.104 0.043-0.179 0.065-0.226 0.065-0.095 0-0.169-0.083-0.221-0.25-0.072-0.236-0.107-0.571-0.107-1.007 0-0.621 0.053-1.086 0.16-1.392-0.06 0.054-0.175 0.175-0.345 0.361-0.03 0.033-0.065 0.049-0.103 0.049-0.052 0-0.078-0.023-0.078-0.069 0-0.025 0.012-0.054 0.037-0.087 0.164-0.221 0.379-0.516 0.645-0.883 0.069-0.098 0.14-0.148 0.214-0.148 0.082 0 0.208 0.066 0.378 0.197 0.035 0.031 0.053 0.063 0.053 0.099 0 0.068-0.049 0.119-0.148 0.152-0.241 0.515-0.361 1.094-0.361 1.738 0 0.331 0.039 0.608 0.119 0.83 0.03 0.087 0.071 0.131 0.123 0.131s0.112-0.047 0.181-0.14c0.211-0.293 0.419-0.651 0.624-1.076 0.184-0.381 0.306-0.686 0.366-0.916-0.036-0.063-0.054-0.147-0.054-0.251 0-0.186 0.061-0.434 0.181-0.743 0.052-0.129 0.119-0.193 0.201-0.193 0.047 0 0.143 0.042 0.288 0.127 0.071 0.041 0.107 0.096 0.107 0.164 0 0.05-0.019 0.137-0.058 0.263z" fill="#f1332f"/><path d="m22.344 2.258c0.044 0.032 0.066 0.069 0.066 0.111 0 0.079-0.118 0.202-0.354 0.369-0.156 0.107-0.306 0.145-0.452 0.115-0.082-0.016-0.153-0.046-0.213-0.09-0.019-0.017-0.034-0.034-0.043-0.051-0.01-0.018-0.012-0.033-7e-3 -0.044 9e-3 -0.011 0.025-0.013 0.05-8e-3 0.252-0.219 0.417-0.376 0.497-0.472 0.063-0.071 0.108-0.107 0.135-0.107 0.05 0 0.156 0.059 0.321 0.177zm-0.579 1.799c-0.066 0.37-0.237 0.984-0.514 1.844 0.079-0.071 0.189-0.201 0.329-0.39 0.019-0.024 0.038-0.037 0.057-0.037 0.044 0 0.05 0.039 0.017 0.115-0.014 0.03-0.129 0.218-0.345 0.563-0.165 0.263-0.285 0.496-0.362 0.698-0.025 0.063-0.07 0.095-0.135 0.095-0.066 0-0.155-0.032-0.268-0.095-0.071-0.038-0.106-0.067-0.106-0.086 0-0.016 0.015-0.052 0.045-0.107 0.148-0.26 0.312-0.695 0.493-1.306 0.172-0.592 0.27-1.031 0.291-1.319 9e-3 -0.123-4e-3 -0.185-0.036-0.185-0.025 0-0.069 0.031-0.132 0.091l-0.255 0.238c-0.09 0.082-0.135 0.086-0.135 0.012 0-0.022 0.012-0.049 0.037-0.082 0.128-0.181 0.265-0.352 0.411-0.513 0.043-0.047 0.086-0.07 0.127-0.07 0.044 0 0.108 0.03 0.193 0.09 0.126 0.033 0.196 0.054 0.21 0.062 0.063 0.038 0.094 0.109 0.094 0.213 0 0.05-5e-3 0.106-0.016 0.169z" fill="#f1332f"/><path d="m24.151 3.56c0 0.123-0.032 0.32-0.098 0.591-0.025 0.094-0.052 0.154-0.082 0.181-0.014 0.014-0.061 0.034-0.14 0.062-0.101 0.038-0.164 0.057-0.189 0.057-0.041 0-0.062-0.027-0.062-0.082 0-0.03 6e-3 -0.07 0.017-0.119 0.066-0.271 0.091-0.459 0.076-0.565-0.015-0.105 0.016-0.172 0.092-0.199 0.134-0.069 0.221-0.103 0.259-0.103 0.085 0 0.127 0.059 0.127 0.177zm-0.657 2.358c8e-3 0.329-0.174 0.553-0.546 0.674-0.047 0.115-0.091 0.194-0.132 0.238-0.063 0.066-0.156 0.104-0.279 0.115-0.08 5e-3 -0.164 1e-3 -0.255-0.012-0.161-0.025-0.36-0.055-0.595-0.091-0.066-0.011-0.106-0.05-0.12-0.119 0.011-0.074 0.088-0.118 0.23-0.131 0.195-0.014 0.482-0.048 0.863-0.103 0.143-0.033 0.244-0.114 0.304-0.242 0.036-0.066 0.054-0.147 0.054-0.243 0-0.172-0.087-0.476-0.259-0.912-0.17-0.424-0.249-0.708-0.239-0.85 0.022-0.343 0.339-0.581 0.949-0.715 0.061-0.014 0.091 8e-3 0.091 0.066 0 0.033-0.022 0.059-0.066 0.078-0.296 0.128-0.444 0.287-0.444 0.476 0 0.074 0.014 0.167 0.041 0.278 0.028 0.111 0.11 0.377 0.247 0.799 0.101 0.304 0.153 0.535 0.156 0.694z" fill="#f1332f"/><path d="m26.398 5.68c-0.665 0.851-1.133 1.277-1.404 1.277-0.129 0-0.292-0.089-0.489-0.267-0.206-0.096-0.308-0.224-0.308-0.386 0-0.03 2e-3 -0.062 8e-3 -0.094 0.049-0.376 0.149-0.791 0.3-1.245-0.102-0.052-0.152-0.102-0.152-0.148 0-0.038 0.028-0.058 0.086-0.058 0.044 0 0.089 0.013 0.135 0.037 0.244-0.547 0.463-0.936 0.658-1.166 0.126-0.154 0.239-0.23 0.341-0.23 0.046 0 0.161 0.039 0.345 0.119-0.014-0.082 9e-3 -0.13 0.07-0.144h0.193c0.118 0 0.176 0.021 0.176 0.062 0 8e-3 -4e-3 0.031-0.012 0.069-8e-3 0.039-0.012 0.074-0.012 0.107 0 0.099 1e-3 0.221 4e-3 0.366s4e-3 0.242 4e-3 0.292c0 0.339-0.093 0.576-0.279 0.71-0.17 0.123-0.362 0.185-0.576 0.185-0.112 0-0.298-0.03-0.558-0.09-0.047 0.085-0.099 0.25-0.156 0.497-0.077 0.312-0.113 0.589-0.107 0.83 3e-3 0.142 0.048 0.213 0.135 0.213 0.033 0 0.076-8e-3 0.128-0.024 0.317-0.113 0.76-0.455 1.327-1.027 0.035-0.036 0.071-0.054 0.107-0.054 0.052 0 0.078 0.025 0.078 0.074 0 0.03-0.014 0.062-0.042 0.095zm-0.48-1.816c0-0.107-0.023-0.16-0.07-0.16-0.03 0-0.074 0.022-0.131 0.065-0.269 0.217-0.504 0.596-0.707 1.138 0.055 9e-3 0.151 0.017 0.288 0.025 0.221 8e-3 0.387-0.043 0.497-0.152 0.082-0.082 0.127-0.218 0.135-0.407-8e-3 0.14-0.012-0.03-0.012-0.509z" fill="#f1332f"/><path d="m31.792 0.475c0.033 0.024 0.05 0.052 0.05 0.082 0 0.052-0.033 0.078-0.099 0.078-0.025 0-0.051-7e-3 -0.078-0.021-0.129-0.063-0.225-0.094-0.288-0.094-0.169 0-0.357 0.167-0.562 0.501-0.753 1.23-1.303 2.867-1.648 4.913 0.072-0.068 0.167-0.175 0.288-0.32 0.071-0.085 0.123-0.127 0.156-0.127 0.074 0 0.081 0.042 0.021 0.127-0.263 0.364-0.437 0.757-0.522 1.179-0.033 0.101-0.074 0.152-0.123 0.152-0.025 0-0.055-0.012-0.091-0.037-0.137-0.093-0.213-0.148-0.23-0.164-0.055-0.052-0.082-0.122-0.082-0.21 0-0.046 7e-3 -0.101 0.021-0.164 0.117-0.633 0.215-1.104 0.291-1.413-0.268 0.386-0.572 0.771-0.91 1.156s-0.584 0.628-0.737 0.729c-0.118 0.08-0.206 0.119-0.263 0.119-0.049 0-0.125-0.039-0.226-0.119-0.178-0.109-0.267-0.237-0.267-0.382 0-0.025 3e-3 -0.052 8e-3 -0.082 0.058-0.408 0.241-0.881 0.549-1.419 0.308-0.539 0.66-0.991 1.057-1.358 0.129-0.121 0.244-0.179 0.346-0.177 0.106 6e-3 0.297 0.136 0.571 0.391 0.024 0.021 0.037 0.045 0.037 0.069 0 0.044-0.029 0.066-0.087 0.066-0.019 0-0.039-4e-3 -0.061-0.012-0.192-0.082-0.348-0.08-0.469 8e-3 -0.257 0.192-0.541 0.524-0.85 0.998-0.359 0.548-0.57 1.041-0.633 1.479-0.013 0.104 0.014 0.156 0.082 0.156 0.091 0 0.202-0.064 0.333-0.193 0.304-0.298 0.631-0.674 0.982-1.125 0.359-0.469 0.589-0.822 0.69-1.06 0.058-0.132 0.103-0.258 0.136-0.378 0.285-1.008 0.602-1.869 0.953-2.584 0.274-0.559 0.515-0.934 0.723-1.126 0.077-0.074 0.15-0.111 0.222-0.111 0.076 0 0.175 0.045 0.295 0.136 0.137 0.112 0.276 0.224 0.415 0.337z" fill="#f1332f"/><path d="m36.706 2.155c-0.099 0.854-0.382 1.784-0.851 2.789-0.61 1.32-1.286 1.995-2.025 2.026-0.142 5e-3 -0.278-6e-3 -0.407-0.033-0.148-0.028-0.212-0.065-0.193-0.111-0.449-0.11-0.76-0.237-0.932-0.382-0.239-0.2-0.351-0.508-0.337-0.925 0.027-0.794 0.264-1.644 0.711-2.551 0.358-0.728 0.705-1.246 1.039-1.553 0.14-0.128 0.268-0.193 0.386-0.193s0.237 0.033 0.357 0.099c0.05 0.027 0.206 0.129 0.469 0.304 0.213-0.233 0.395-0.401 0.546-0.505 0.09-0.061 0.184-0.091 0.279-0.091 0.162 0 0.307 0.081 0.436 0.243 0.227 0.013 0.374 0.043 0.439 0.09 0.08 0.052 0.12 0.162 0.12 0.329 0 0.096-0.013 0.25-0.037 0.464zm-0.547-0.345c0.014-0.206-0.034-0.308-0.144-0.308-0.087 0-0.219 0.061-0.394 0.185-0.394 0.271-0.871 0.671-1.43 1.199-0.062 0.06-0.119 0.092-0.168 0.095-0.046 5e-3 -0.07-0.015-0.07-0.062 0-0.044 0.021-0.096 0.062-0.156 0.238-0.373 0.482-0.696 0.731-0.97-0.142-0.106-0.27-0.16-0.382-0.16-0.068 0-0.129 0.021-0.181 0.062-0.304 0.222-0.647 0.713-1.031 1.475-0.457 0.901-0.669 1.691-0.637 2.37 0.014 0.277 0.068 0.486 0.161 0.628 0.082 0.124 0.228 0.239 0.439 0.346 0.167 0.084 0.332 0.119 0.493 0.102 0.559-0.06 1.112-0.631 1.66-1.713 0.52-1.03 0.817-2.061 0.891-3.093z" fill="#f1332f"/><path d="m39.676 4.32c-0.033 0.463-0.155 0.96-0.366 1.491-0.197 0.496-0.391 0.834-0.583 1.015-0.11 0.101-0.221 0.152-0.333 0.152-0.126 0-0.335-0.102-0.628-0.304-0.058-0.039-0.087-0.078-0.087-0.119 0-0.052 0.037-0.078 0.111-0.078 0.03 0 0.074 9e-3 0.132 0.028 0.057 0.02 0.104 0.029 0.139 0.029 0.2 0 0.38-0.127 0.538-0.382 0.135-0.219 0.262-0.513 0.383-0.883 0.145-0.46 0.208-0.856 0.188-1.187-8e-3 -0.159-0.061-0.239-0.16-0.239-0.087 0-0.194 0.061-0.32 0.181-0.888 0.849-1.512 1.864-1.873 3.044-0.206 0.671-0.343 1.293-0.411 1.865-3e-3 0.019-0.04 0.495-0.111 1.426-0.011 0.134-0.044 0.201-0.099 0.201-0.057 0-0.16-0.067-0.308-0.201-0.107-0.099-0.148-0.219-0.123-0.362 0.12-1.364 0.45-2.882 0.99-4.556 0.424-1.309 0.761-2.158 1.011-2.547 0.147-0.227 0.279-0.338 0.394-0.332 0.115 2e-3 0.334 0.105 0.657 0.308 0.044 0.027 0.066 0.056 0.066 0.086 0 0.041-0.033 0.062-0.099 0.062-0.016 0-0.043-4e-3 -0.082-0.011-0.038-7e-3 -0.067-0.01-0.086-0.01-0.173 0-0.352 0.147-0.538 0.44-0.11 0.167-0.248 0.447-0.415 0.842-0.167 0.394-0.288 0.719-0.362 0.973 0.403-0.657 0.871-1.221 1.405-1.692 0.082-0.071 0.156-0.107 0.222-0.107 0.03 0 0.106 0.041 0.226 0.123 0.373 0.132 0.546 0.38 0.522 0.744z" fill="#f1332f"/><path d="m42.132 5.68c-0.665 0.851-1.133 1.277-1.405 1.277-0.128 0-0.291-0.089-0.488-0.267-0.206-0.096-0.309-0.224-0.309-0.386 0-0.03 3e-3 -0.062 9e-3 -0.094 0.049-0.376 0.149-0.791 0.3-1.245-0.102-0.052-0.152-0.102-0.152-0.148 0-0.038 0.028-0.058 0.086-0.058 0.044 0 0.089 0.013 0.135 0.037 0.244-0.547 0.463-0.936 0.658-1.166 0.126-0.154 0.239-0.23 0.341-0.23 0.046 0 0.161 0.039 0.345 0.119-0.014-0.082 9e-3 -0.13 0.07-0.144h0.193c0.117 0 0.176 0.021 0.176 0.062 0 8e-3 -4e-3 0.031-0.012 0.069-8e-3 0.039-0.012 0.074-0.012 0.107 0 0.099 1e-3 0.221 4e-3 0.366s4e-3 0.242 4e-3 0.292c0 0.339-0.093 0.576-0.279 0.71-0.17 0.123-0.362 0.185-0.576 0.185-0.112 0-0.298-0.03-0.558-0.09-0.047 0.085-0.099 0.25-0.156 0.497-0.077 0.312-0.113 0.589-0.107 0.83 3e-3 0.142 0.048 0.213 0.135 0.213 0.033 0 0.076-8e-3 0.128-0.024 0.317-0.113 0.76-0.455 1.327-1.027 0.035-0.036 0.071-0.054 0.106-0.054 0.052 0 0.078 0.025 0.078 0.074 0 0.03-0.013 0.062-0.041 0.095zm-0.48-1.816c0-0.107-0.024-0.16-0.07-0.16-0.03 0-0.074 0.022-0.132 0.065-0.268 0.217-0.503 0.596-0.706 1.138 0.055 9e-3 0.151 0.017 0.287 0.025 0.222 8e-3 0.388-0.043 0.498-0.152 0.082-0.082 0.127-0.218 0.135-0.407-8e-3 0.14-0.012-0.03-0.012-0.509z" fill="#f1332f"/><path d="m45.053 3.761c0 0.359-0.048 0.701-0.144 1.027-0.03 0.099-0.071 0.148-0.123 0.148-0.038 0-0.123-0.055-0.254-0.164-0.066-0.055-0.083-0.133-0.05-0.234 0.077-0.25 0.115-0.45 0.115-0.6 0-0.052-0.011-0.078-0.033-0.078-0.032 0-0.086 0.049-0.16 0.148-0.569 0.742-0.995 1.574-1.277 2.497-0.091 0.293-0.168 0.44-0.23 0.44-0.025 0-0.133-0.048-0.325-0.144-0.093-0.046-0.125-0.137-0.095-0.271 0.217-0.948 0.45-1.747 0.699-2.399-0.203 0.213-0.332 0.36-0.386 0.439-0.022 0.033-0.052 0.05-0.091 0.05-0.046 0-0.07-0.021-0.07-0.062 0-0.025 0.011-0.052 0.033-0.082 0.135-0.162 0.314-0.408 0.539-0.74 0.068-0.12 0.136-0.18 0.205-0.18 0.049 0 0.149 0.038 0.3 0.115 0.085 0.044 0.098 0.102 0.041 0.176-0.06 0.08-0.174 0.361-0.341 0.843-0.159 0.468-0.268 0.835-0.329 1.101 0.373-0.83 0.796-1.563 1.27-2.198 0.09-0.121 0.163-0.181 0.217-0.181 0.05 0 0.117 0.033 0.202 0.099 0.115 0.013 0.187 0.031 0.217 0.053 0.047 0.033 0.07 0.099 0.07 0.197z" fill="#f1332f"/><path d="m47.962 4.114c-0.252 0.699-0.426 1.285-0.522 1.759 0.041-0.039 0.095-0.098 0.162-0.177s0.109-0.126 0.126-0.14c0.038-0.049 0.079-0.074 0.123-0.074 0.041 0 0.061 0.021 0.061 0.062 0 0.025-0.01 0.053-0.032 0.086-0.258 0.381-0.429 0.766-0.514 1.155-0.025 0.109-0.062 0.164-0.111 0.164-0.046 0-0.133-0.044-0.259-0.131-0.074-0.05-0.116-0.091-0.127-0.124-0.014-0.03-0.014-0.09 0-0.18 0.115-0.696 0.259-1.274 0.431-1.734-0.238 0.386-0.562 0.813-0.973 1.282-0.359 0.408-0.618 0.668-0.777 0.78-0.115 0.08-0.202 0.119-0.263 0.119-0.049 0-0.124-0.039-0.226-0.119-0.145-0.087-0.217-0.208-0.217-0.361 0-0.03 2e-3 -0.065 8e-3 -0.103 0.049-0.405 0.227-0.877 0.534-1.415s0.659-0.992 1.056-1.362c0.128-0.121 0.244-0.179 0.345-0.177 0.098 6e-3 0.286 0.136 0.563 0.391 0.024 0.021 0.037 0.045 0.037 0.069 0 0.044-0.029 0.066-0.087 0.066-0.022 0-0.042-4e-3 -0.061-0.012-0.195-0.082-0.351-0.08-0.469 8e-3 -0.257 0.189-0.542 0.522-0.854 0.998-0.362 0.548-0.579 1.041-0.653 1.479-3e-3 0.019-4e-3 0.037-4e-3 0.054 0 0.068 0.027 0.102 0.082 0.102 0.093 0 0.204-0.064 0.333-0.193 0.306-0.298 0.635-0.674 0.986-1.125 0.358-0.469 0.588-0.822 0.69-1.06 0.074-0.176 0.122-0.299 0.143-0.37 0.036-0.123 0.074-0.185 0.115-0.185 0.042 0 0.137 0.056 0.288 0.169 0.063 0.046 0.097 0.089 0.103 0.127 5e-3 0.033-7e-3 0.09-0.037 0.172z" fill="#f1332f"/></svg>
